<svg version="1.1" xmlns="http://www.w3.org/2000/svg" viewBox="0 0 1438 786" width="1438" height="786">
  <!-- svg-source:excalidraw -->
  
  <defs>
    <style class="style-fonts">
      @font-face {
        font-family: "Virgil";
        src: url("https://excalidraw.com/Virgil.woff2");
      }
      @font-face {
        font-family: "Cascadia";
        src: url("https://excalidraw.com/Cascadia.woff2");
      }
      @font-face {
        font-family: "Assistant";
        src: url("https://excalidraw.com/Assistant-Regular.woff2");
      }
    </style>
    
  </defs>
  <rect x="0" y="0" width="1438" height="786" fill="#ffffff"></rect><g stroke-linecap="round" transform="translate(266 220) rotate(0 112.5 56.5)"><path d="M0 0 C78.36 -0.9, 156.47 -2.29, 225 0 M0 0 C65.24 1.19, 129.71 -0.24, 225 0 M225 0 C224.36 39.53, 226.7 74.21, 225 113 M225 0 C224.73 38.69, 224.09 78.94, 225 113 M225 113 C163.54 114.26, 104.28 113.91, 0 113 M225 113 C151.18 114.13, 78.15 113.13, 0 113 M0 113 C1.57 82.58, -1.29 52.36, 0 0 M0 113 C-0.17 80.57, -1.53 49.01, 0 0" stroke="#1e1e1e" stroke-width="2" fill="none"></path></g><g transform="translate(358.6848828496968 264) rotate(0 19.815117150303195 12.5)"><text x="19.815117150303198" y="17.52" font-family="Virgil, Segoe UI Emoji" font-size="20px" fill="#1e1e1e" text-anchor="middle" style="white-space: pre;" direction="ltr" dominant-baseline="alphabetic">ALB</text></g><g stroke-linecap="round" transform="translate(15 221) rotate(0 15 13.5)"><path d="M14.49 -0.13 C17.62 -0.25, 22.14 1.51, 24.7 3.3 C27.26 5.09, 29.32 7.83, 29.83 10.61 C30.34 13.4, 29.44 17.46, 27.77 19.98 C26.11 22.5, 22.88 24.65, 19.83 25.72 C16.78 26.79, 12.4 27.4, 9.48 26.42 C6.56 25.43, 3.91 22.4, 2.31 19.82 C0.71 17.25, -0.68 13.7, -0.11 11 C0.46 8.29, 3.11 5.42, 5.71 3.6 C8.32 1.77, 13.73 0.55, 15.54 0.03 C17.36 -0.5, 16.7 0.19, 16.61 0.43 M15.91 0.66 C18.85 0.83, 22.72 2.43, 25.18 4.46 C27.63 6.48, 30.21 10, 30.66 12.8 C31.1 15.6, 29.85 19.03, 27.87 21.25 C25.89 23.47, 21.91 25.47, 18.77 26.13 C15.63 26.78, 11.85 26.26, 9.04 25.18 C6.23 24.1, 3.44 22.22, 1.91 19.67 C0.37 17.12, -0.87 12.8, -0.18 9.87 C0.52 6.94, 3.29 3.85, 6.06 2.1 C8.83 0.36, 14.77 -0.27, 16.45 -0.6 C18.12 -0.93, 16.05 -0.12, 16.11 0.1" stroke="#1e1e1e" stroke-width="2" fill="none"></path></g><g stroke-linecap="round"><g transform="translate(30 246) rotate(0 -0.5 34)"><path d="M0 0 C-1.81 22.61, -0.41 41.09, -1 68 M0 0 C-0.93 14.11, -1.87 26.71, -1 68" stroke="#1e1e1e" stroke-width="2" fill="none"></path></g></g><mask></mask><g stroke-linecap="round"><g transform="translate(29 312) rotate(0 -8 14)"><path d="M0 0 C-2.76 6.54, -7.63 12.82, -16 28 M0 0 C-3.33 6.6, -7.25 12.74, -16 28" stroke="#1e1e1e" stroke-width="2" fill="none"></path></g></g><mask></mask><g stroke-linecap="round"><g transform="translate(28 313) rotate(0 7.5 14)"><path d="M0 0 C2.33 5.28, 6.93 10.52, 15 28 M0 0 C2.98 6.48, 6.36 12.44, 15 28" stroke="#1e1e1e" stroke-width="2" fill="none"></path></g></g><mask></mask><g stroke-linecap="round"><g transform="translate(49 285) rotate(0 -10 -13)"><path d="M0 0 C-5.13 -4.77, -9.15 -11.96, -20 -26 M0 0 C-4.45 -6.53, -9.55 -13.09, -20 -26" stroke="#1e1e1e" stroke-width="2" fill="none"></path></g></g><mask></mask><g stroke-linecap="round"><g transform="translate(27 259) rotate(0 -8.5 14.5)"><path d="M0 0 C-3.09 6.51, -7.55 13.97, -17 29 M0 0 C-5.76 9.36, -10.55 18.4, -17 29" stroke="#1e1e1e" stroke-width="2" fill="none"></path></g></g><mask></mask><g stroke-linecap="round" transform="translate(635 217) rotate(0 143.5 55)"><path d="M0 0 C66.28 1.61, 132.35 1.6, 287 0 M0 0 C105.29 -0.97, 212.12 -1.3, 287 0 M287 0 C288.32 34.01, 285.89 62.81, 287 110 M287 0 C287.23 27.68, 286.15 56.98, 287 110 M287 110 C212.28 109.47, 139.07 109.52, 0 110 M287 110 C205.76 110.16, 126.18 110.49, 0 110 M0 110 C-1.88 80.08, -1.9 47.88, 0 0 M0 110 C0.41 76.54, 0.87 43.34, 0 0" stroke="#1e1e1e" stroke-width="2" fill="none"></path></g><g transform="translate(684.7267415380255 247) rotate(0 93.77325846197454 25)"><text x="93.7732584619745" y="17.52" font-family="Virgil, Segoe UI Emoji" font-size="20px" fill="#1e1e1e" text-anchor="middle" style="white-space: pre;" direction="ltr" dominant-baseline="alphabetic">ECS Fargate Task</text><text x="93.7732584619745" y="42.519999999999996" font-family="Virgil, Segoe UI Emoji" font-size="20px" fill="#1e1e1e" text-anchor="middle" style="white-space: pre;" direction="ltr" dominant-baseline="alphabetic">(service)</text></g><g stroke-linecap="round"><g transform="translate(503 281.5045629482862) rotate(0 59 -0.47968773890792704)"><path d="M0 0 C31.33 -3.22, 67.94 -0.1, 118 -0.96 M0 0 C47.25 -1.88, 92.5 -0.69, 118 -0.96" stroke="#1e1e1e" stroke-width="2" fill="none"></path></g><g transform="translate(503 281.5045629482862) rotate(0 59 -0.47968773890792704)"><path d="M94.5 7.56 C99.44 3.09, 109.61 4.08, 118 -0.96 M94.5 7.56 C104.36 3.18, 112.18 1.37, 118 -0.96" stroke="#1e1e1e" stroke-width="2" fill="none"></path></g><g transform="translate(503 281.5045629482862) rotate(0 59 -0.47968773890792704)"><path d="M94.52 -9.54 C99.31 -9.23, 109.47 -3.45, 118 -0.96 M94.52 -9.54 C104.3 -7.15, 112.12 -2.18, 118 -0.96" stroke="#1e1e1e" stroke-width="2" fill="none"></path></g></g><mask></mask><g stroke-linecap="round"><g transform="translate(69.88311417134526 287.3344070174992) rotate(0 91.55844291432737 0.44681921097864574)"><path d="M0 0 C73.86 -0.07, 144.53 2.6, 183.12 0.89 M0 0 C50.48 1.79, 102.18 1.72, 183.12 0.89" stroke="#1e1e1e" stroke-width="2" fill="none"></path></g><g transform="translate(69.88311417134526 287.3344070174992) rotate(0 91.55844291432737 0.44681921097864574)"><path d="M159.69 9.63 C170.09 5.1, 177.36 3.95, 183.12 0.89 M159.69 9.63 C165.43 7.17, 172.47 4.42, 183.12 0.89" stroke="#1e1e1e" stroke-width="2" fill="none"></path></g><g transform="translate(69.88311417134526 287.3344070174992) rotate(0 91.55844291432737 0.44681921097864574)"><path d="M159.56 -7.47 C170.12 -5.21, 177.44 0.42, 183.12 0.89 M159.56 -7.47 C165.49 -5.14, 172.57 -3.12, 183.12 0.89" stroke="#1e1e1e" stroke-width="2" fill="none"></path></g></g><mask></mask><g stroke-linecap="round" transform="translate(778 10) rotate(0 119.5 37)"><path d="M0 0 C83.56 0.61, 165.74 -2.12, 239 0 M0 0 C55.26 -0.29, 111.27 0.97, 239 0 M239 0 C238.71 21.69, 240.7 43.44, 239 74 M239 0 C239.26 25.85, 237.57 52.99, 239 74 M239 74 C146 71.76, 54.5 73.28, 0 74 M239 74 C147.8 75.53, 58.13 75.48, 0 74 M0 74 C0.97 48.83, -0.24 25.14, 0 0 M0 74 C0.25 44.59, 0.16 15.55, 0 0" stroke="#1e1e1e" stroke-width="2" fill="none"></path></g><g transform="translate(877.533360842574 34.5) rotate(0 19.966639157425902 12.5)"><text x="19.966639157425956" y="17.52" font-family="Virgil, Segoe UI Emoji" font-size="20px" fill="#1e1e1e" text-anchor="middle" style="white-space: pre;" direction="ltr" dominant-baseline="alphabetic">ECR</text></g><g mask="url(#mask-Dt6q-DbAfRduB0ZzqVBmX)" stroke-linecap="round"><g transform="translate(773 197) rotate(0 31.5 -53.5)"><path d="M0 0 C15.42 -26.87, 30.13 -52.61, 63 -107" stroke="#1e1e1e" stroke-width="2.5" fill="none" stroke-dasharray="1.5 8"></path></g><g transform="translate(773 197) rotate(0 31.5 -53.5)"><path d="M58.25 -82.45 C58.62 -88.85, 58.79 -94.01, 63 -107" stroke="#1e1e1e" stroke-width="2.5" fill="none" stroke-dasharray="1.5 6"></path></g><g transform="translate(773 197) rotate(0 31.5 -53.5)"><path d="M43.59 -91.25 C47.56 -95.42, 51.39 -98.39, 63 -107" stroke="#1e1e1e" stroke-width="2.5" fill="none" stroke-dasharray="1.5 6"></path></g></g><mask id="mask-Dt6q-DbAfRduB0ZzqVBmX"><rect x="0" y="0" fill="#fff" width="936" height="404"></rect><rect x="770.0858066326718" y="131" fill="#000" width="68.82838673465653" height="25" opacity="1"></rect></mask><g transform="translate(770.0858066326718 131) rotate(0 34.41419336732815 12.5)"><text x="34.41419336732827" y="17.52" font-family="Virgil, Segoe UI Emoji" font-size="20px" fill="#1e1e1e" text-anchor="middle" style="white-space: pre;" direction="ltr" dominant-baseline="alphabetic">pull img</text></g><g stroke-linecap="round" transform="translate(1227 680) rotate(0 96.5 48)"><path d="M0 0 C58.56 -0.37, 112.81 -0.53, 193 0 M0 0 C47.05 0.32, 92.3 0.13, 193 0 M193 0 C193.34 30.17, 192.53 60.43, 193 96 M193 0 C192.52 35.13, 192.33 71.88, 193 96 M193 96 C152 95.58, 113.12 94.55, 0 96 M193 96 C128.05 97.62, 61.34 97.36, 0 96 M0 96 C-0.98 72.47, 0.73 48.14, 0 0 M0 96 C0.07 58.48, -0.02 20.63, 0 0" stroke="#1e1e1e" stroke-width="2" fill="none"></path></g><g transform="translate(1265.7147976826727 715.5) rotate(0 57.78520231732739 12.5)"><text x="57.78520231732735" y="17.52" font-family="Virgil, Segoe UI Emoji" font-size="20px" fill="#1e1e1e" text-anchor="middle" style="white-space: pre;" direction="ltr" dominant-baseline="alphabetic">code commit</text></g><g stroke-linecap="round" transform="translate(1231 440) rotate(0 98.5 38.5)"><path d="M0 0 C51.51 3.18, 103.29 1.05, 197 0 M0 0 C54.59 1.18, 109.73 0.92, 197 0 M197 0 C196.65 26.78, 195.4 53.92, 197 77 M197 0 C196.97 25.35, 197.11 51.79, 197 77 M197 77 C150.87 78.37, 102.88 77.61, 0 77 M197 77 C154.28 79.18, 112.08 79.68, 0 77 M0 77 C1.75 62.98, -1.46 44.64, 0 0 M0 77 C-0.28 54.54, 0.81 32.97, 0 0" stroke="#1e1e1e" stroke-width="2" fill="none"></path></g><g transform="translate(1270.2985928770483 466) rotate(0 59.20140712295165 12.5)"><text x="59.20140712295168" y="17.52" font-family="Virgil, Segoe UI Emoji" font-size="20px" fill="#1e1e1e" text-anchor="middle" style="white-space: pre;" direction="ltr" dominant-baseline="alphabetic">code pipeline</text></g><g stroke-linecap="round" transform="translate(1238 260) rotate(0 85 33)"><path d="M0 0 C52.39 -1.23, 109.01 0.83, 170 0 M0 0 C36.79 -0.57, 75.35 -0.86, 170 0 M170 0 C170.78 16.21, 170.26 34.38, 170 66 M170 0 C169.06 21.55, 169.57 41.71, 170 66 M170 66 C131.83 66.32, 91.47 65.61, 0 66 M170 66 C111.63 67.34, 55.89 67.27, 0 66 M0 66 C1.07 51.57, 2.6 36.96, 0 0 M0 66 C-0.57 52.3, -0.28 38.31, 0 0" stroke="#1e1e1e" stroke-width="2" fill="none"></path></g><g transform="translate(1275 280.5) rotate(0 48 12.5)"><text x="48" y="17.52" font-family="Virgil, Segoe UI Emoji" font-size="20px" fill="#1e1e1e" text-anchor="middle" style="white-space: pre;" direction="ltr" dominant-baseline="alphabetic">code build</text></g><g mask="url(#mask-7t4VBNtvss3wnKIIx-apw)" stroke-linecap="round"><g transform="translate(1328.4595953229646 668.0000000000001) rotate(0 1.7785376261442707 -71.00000000000006)"><path d="M0 0 C0.09 -36.21, 2.2 -70.03, 3.56 -142 M0 0 C0.08 -35.65, 0.56 -70.17, 3.56 -142" stroke="#1e1e1e" stroke-width="2" fill="none"></path></g><g transform="translate(1328.4595953229646 668.0000000000001) rotate(0 1.7785376261442707 -71.00000000000006)"><path d="M11.23 -118.21 C9.47 -124.91, 8.78 -129.29, 3.56 -142 M11.23 -118.21 C9.58 -124.93, 7.31 -130.55, 3.56 -142" stroke="#1e1e1e" stroke-width="2" fill="none"></path></g><g transform="translate(1328.4595953229646 668.0000000000001) rotate(0 1.7785376261442707 -71.00000000000006)"><path d="M-5.86 -118.84 C-3.36 -125.49, 0.21 -129.71, 3.56 -142 M-5.86 -118.84 C-3.33 -125.43, -1.41 -130.89, 3.56 -142" stroke="#1e1e1e" stroke-width="2" fill="none"></path></g></g><mask id="mask-7t4VBNtvss3wnKIIx-apw"><rect x="0" y="0" fill="#fff" width="1432.016670575253" height="910.0000000000002"></rect><rect x="1276.0125035228334" y="571.9999999999999" fill="#000" width="108.45125885255082" height="50" opacity="1"></rect></mask><g transform="translate(1276.0125035228332 572) rotate(0 54.22562942627542 25.000000000000057)"><text x="54.22562942627541" y="17.52" font-family="Virgil, Segoe UI Emoji" font-size="20px" fill="#1e1e1e" text-anchor="middle" style="white-space: pre;" direction="ltr" dominant-baseline="alphabetic">eventbridge</text><text x="54.22562942627541" y="42.519999999999996" font-family="Virgil, Segoe UI Emoji" font-size="20px" fill="#1e1e1e" text-anchor="middle" style="white-space: pre;" direction="ltr" dominant-baseline="alphabetic">trigger</text></g><g mask="url(#mask-8io3KdomqzGLfD0mDE5sW)" stroke-linecap="round"><g transform="translate(1322.4957462955513 429) rotate(0 -0.46750975033842224 -46.5)"><path d="M0 0 C-1.79 -26.16, -0.85 -55.06, -0.94 -93 M0 0 C-1.15 -34.53, -1.66 -70.24, -0.94 -93" stroke="#1e1e1e" stroke-width="2" fill="none"></path></g><g transform="translate(1322.4957462955513 429) rotate(0 -0.46750975033842224 -46.5)"><path d="M7.28 -69.39 C3.34 -75.31, 2.16 -83.99, -0.94 -93 M7.28 -69.39 C3.59 -77.77, 0.34 -87.34, -0.94 -93" stroke="#1e1e1e" stroke-width="2" fill="none"></path></g><g transform="translate(1322.4957462955513 429) rotate(0 -0.46750975033842224 -46.5)"><path d="M-9.82 -69.63 C-8.78 -75.52, -4.98 -84.13, -0.94 -93 M-9.82 -69.63 C-7.06 -77.92, -3.87 -87.4, -0.94 -93" stroke="#1e1e1e" stroke-width="2" fill="none"></path></g></g><mask id="mask-8io3KdomqzGLfD0mDE5sW"><rect x="0" y="0" fill="#fff" width="1423.4307657962281" height="622"></rect><rect x="1290.1011907077223" y="370" fill="#000" width="63.854091674980964" height="25" opacity="1"></rect></mask><g transform="translate(1290.1011907077223 370) rotate(0 31.759376852151718 12.5)"><text x="31.927045837490482" y="17.52" font-family="Virgil, Segoe UI Emoji" font-size="20px" fill="#1e1e1e" text-anchor="middle" style="white-space: pre;" direction="ltr" dominant-baseline="alphabetic">trigger</text></g><g mask="url(#mask-yAYG1Po4zKo1OHjz6fsUZ)" stroke-linecap="round"><g transform="translate(1308 253) rotate(0 -150 -81.5)"><path d="M0 0 C-88.93 -46.36, -175.1 -93.89, -300 -163 M0 0 C-86.08 -47.71, -171.21 -93.69, -300 -163" stroke="#1e1e1e" stroke-width="2" fill="none"></path></g><g transform="translate(1308 253) rotate(0 -150 -81.5)"><path d="M-275.26 -159.38 C-284.1 -160.51, -288.81 -161.27, -300 -163 M-275.26 -159.38 C-282.95 -160.54, -289.69 -161.01, -300 -163" stroke="#1e1e1e" stroke-width="2" fill="none"></path></g><g transform="translate(1308 253) rotate(0 -150 -81.5)"><path d="M-283.38 -144.33 C-289.84 -149.93, -292.17 -155.1, -300 -163 M-283.38 -144.33 C-288.8 -149.71, -293.23 -154.46, -300 -163" stroke="#1e1e1e" stroke-width="2" fill="none"></path></g></g><mask id="mask-yAYG1Po4zKo1OHjz6fsUZ"><rect x="0" y="0" fill="#fff" width="1708" height="516"></rect><rect x="1118.4740654178236" y="159" fill="#000" width="79.05186916435298" height="25" opacity="1"></rect></mask><g transform="translate(1118.4740654178236 159) rotate(0 39.52593458217643 12.5)"><text x="39.52593458217649" y="17.52" font-family="Virgil, Segoe UI Emoji" font-size="20px" fill="#1e1e1e" text-anchor="middle" style="white-space: pre;" direction="ltr" dominant-baseline="alphabetic">push img</text></g></svg>